<?xml version="1.0" encoding="utf-8"?>
<!-- Generator: Adobe Illustrator 26.0.2, SVG Export Plug-In . SVG Version: 6.00 Build 0)  -->
<svg version="1.1" id="Layer_1" xmlns="http://www.w3.org/2000/svg" xmlns:xlink="http://www.w3.org/1999/xlink" x="0px" y="0px"
	 width="211.8px" height="55px" viewBox="0 0 211.8 55" style="enable-background:new 0 0 211.8 55;" xml:space="preserve">
<style type="text/css">
	.st0{fill:url(#SVGID_1_);}
	.st1{fill:url(#SVGID_00000011724806186269473130000005117064310405837220_);}
	.st2{fill:url(#SVGID_00000116916376735936758960000005954620464974403974_);}
	.st3{fill:#4451A2;}
	.st4{fill:#929497;}
	.st5{opacity:0.8;}
</style>
<g>
	<g>
		<g>
			<g>
				<g>
					
						<linearGradient id="SVGID_1_" gradientUnits="userSpaceOnUse" x1="147.3015" y1="44.5848" x2="172.438" y2="38.3175" gradientTransform="matrix(1 0 0 -1 0 55)">
						<stop  offset="0" style="stop-color:#295CA9"/>
						<stop  offset="8.101791e-02" style="stop-color:#3C77BB"/>
						<stop  offset="0.1806" style="stop-color:#4E91CD"/>
						<stop  offset="0.283" style="stop-color:#5BA4D9"/>
						<stop  offset="0.3888" style="stop-color:#62AFE1"/>
						<stop  offset="0.503" style="stop-color:#65B3E3"/>
						<stop  offset="0.5333" style="stop-color:#2A69B2"/>
						<stop  offset="1" style="stop-color:#61B9E8"/>
					</linearGradient>
					<path class="st0" d="M152.6,18.3c-0.1,0.5-0.7,1.1-1.3,1.2l-5.7,1.4c-0.5,0.1-0.9-0.2-0.7-0.7l1.5-5.9c0.1-0.5,0.7-1.1,1.3-1.2
						l5.2-1.2c0.5-0.1,1.1-0.7,1.2-1.2l1.4-5.4c0.1-0.5,0.7-1.1,1.2-1.2l5.6-1.4c0.5-0.1,1.3,0.1,1.7,0.5l3.6,4
						c0.4,0.4,0.6,1.2,0.5,1.8l-1.2,5.2c-0.1,0.5,0.1,1.3,0.5,1.7l3.5,3.5c0.4,0.4,0.6,1.2,0.5,1.7l-1.5,5.9c-0.1,0.5-0.6,0.7-1,0.3
						l-4.3-3.9c-0.4-0.4-0.7-1.1-0.5-1.7l1.3-5.4c0.1-0.5-0.1-1.3-0.5-1.7l-3.1-3.3c-0.4-0.4-1.1-0.6-1.7-0.5l-4.8,1.2
						c-0.5,0.1-1.1,0.7-1.3,1.2L152.6,18.3z"/>
					
						<linearGradient id="SVGID_00000034781263512331020940000006212437073076428185_" gradientUnits="userSpaceOnUse" x1="3016.7988" y1="976.3347" x2="3042.406" y2="970.8917" gradientTransform="matrix(-0.507 -0.8619 -0.8619 0.507 2530.1753 2145.3972)">
						<stop  offset="0" style="stop-color:#099447"/>
						<stop  offset="3.584100e-02" style="stop-color:#1E9C45"/>
						<stop  offset="0.116" style="stop-color:#47AB41"/>
						<stop  offset="0.1983" style="stop-color:#69B73E"/>
						<stop  offset="0.2818" style="stop-color:#83C13C"/>
						<stop  offset="0.367" style="stop-color:#96C83A"/>
						<stop  offset="0.4549" style="stop-color:#A1CC39"/>
						<stop  offset="0.55" style="stop-color:#A5CD39"/>
						<stop  offset="0.57" style="stop-color:#0A9B4A"/>
						<stop  offset="1" style="stop-color:#80C242"/>
					</linearGradient>
					<path style="fill:url(#SVGID_00000034781263512331020940000006212437073076428185_);" d="M162.7,31.5c0.5-0.1,1.3,0.1,1.7,0.5
						l4.1,4.3c0.4,0.4,0.3,0.9-0.3,1l-5.8,1.7c-0.5,0.2-1.3-0.1-1.7-0.5l-3.7-4c-0.4-0.4-1.1-0.6-1.7-0.5l-5.3,1.5
						c-0.5,0.2-1.3,0-1.7-0.4l-4.1-4.1c-0.4-0.4-0.6-1.2-0.4-1.7l1.6-5.1c0.2-0.5,0.7-1.1,1.3-1.3l5.1-1.6c0.5-0.2,1.1-0.8,1.2-1.3
						l1.2-4.8c0.1-0.5,0.7-1.1,1.2-1.3l5.8-1.6c0.5-0.2,0.9,0.2,0.8,0.7l-1.1,5.7c-0.1,0.6-0.6,1.1-1.2,1.3l-5.3,1.6
						c-0.5,0.2-1.1,0.7-1.3,1.3l-1.3,4.3c-0.2,0.5,0,1.3,0.4,1.7l3.4,3.5c0.4,0.4,1.2,0.6,1.7,0.5L162.7,31.5z"/>
					
						<linearGradient id="SVGID_00000081622431298973161260000011240748199598994308_" gradientUnits="userSpaceOnUse" x1="2548.4741" y1="-2073.1958" x2="2574.0784" y2="-2078.6382" gradientTransform="matrix(-0.4994 0.8664 0.8664 0.4994 3247.1907 -1157.6272)">
						<stop  offset="4.848480e-02" style="stop-color:#DAA028"/>
						<stop  offset="0.1425" style="stop-color:#E1B521"/>
						<stop  offset="0.2567" style="stop-color:#E6C81A"/>
						<stop  offset="0.3751" style="stop-color:#EAD316"/>
						<stop  offset="0.503" style="stop-color:#EBD715"/>
						<stop  offset="0.5333" style="stop-color:#E1AD24"/>
						<stop  offset="0.6794" style="stop-color:#E5B91E"/>
						<stop  offset="0.9413" style="stop-color:#EFD80D"/>
						<stop  offset="1" style="stop-color:#F1E009"/>
					</linearGradient>
					<path style="fill:url(#SVGID_00000081622431298973161260000011240748199598994308_);" d="M168.9,16.3c-0.4-0.4-0.6-1.2-0.4-1.7
						l1.7-5.7c0.2-0.5,0.6-0.7,1-0.3l4.3,4.3c0.4,0.4,0.6,1.2,0.4,1.7l-1.5,5.1c-0.2,0.5,0,1.3,0.4,1.7l3.9,3.9
						c0.4,0.4,0.6,1.2,0.5,1.7l-1.6,5.6c-0.1,0.5-0.7,1.1-1.3,1.2l-5.2,1.2c-0.5,0.1-1.3-0.1-1.7-0.5l-3.9-3.6
						c-0.4-0.4-1.2-0.6-1.7-0.4l-4.8,1.3c-0.5,0.1-1.3-0.1-1.7-0.5L153,27c-0.4-0.4-0.3-0.9,0.2-1l5.5-1.8c0.5-0.2,1.3,0,1.7,0.4
						l4,3.8c0.4,0.4,1.2,0.6,1.7,0.5l4.4-1c0.5-0.1,1.1-0.7,1.3-1.2l1.4-4.7c0.2-0.5,0-1.3-0.4-1.7L168.9,16.3z"/>
				</g>
				<path class="st3" d="M7.7,2.5h9.2l-2.5,11.7l0,0c0.9-1.2,2-2.1,3.3-2.7s2.6-0.9,3.8-0.9c2.2,0,4,0.5,5.5,1.4
					c1.5,1,2.3,2.6,2.3,4.9c0,1.1-0.3,2.6-0.7,4.5l-2.9,13.2h-9.2L19,24c0.4-1.5,0.7-2.8,0.7-3.9c0-0.8-0.2-1.3-0.7-1.7
					c-0.5-0.4-1.1-0.5-1.9-0.5c-1.4,0-2.4,0.5-3.1,1.3c-0.7,0.8-1.1,1.9-1.4,3.2L10,34.7H0.8L7.7,2.5z"/>
				<path class="st3" d="M33.3,10.9h9.1l-5,23.7h-9.2L33.3,10.9z M42.9,8.7h-9.2l1.4-6.2h9.2L42.9,8.7z"/>
				<path class="st3" d="M85.7,28.1c-0.1,0.2-0.1,0.4-0.2,0.7c-0.1,0.3-0.3,0.7-0.5,1.1c-0.4,0.8-1,1.6-1.9,2.5
					c-0.9,0.9-2.1,1.6-3.8,2.2c-1.6,0.6-3.7,1-6.3,1c-4.2-0.1-7.3-1.1-9.1-3.1c-2-2-2.9-4.5-2.9-7.4c0-2.7,0.5-5,1.4-6.8
					c0.9-1.8,2.1-3.2,3.6-4.4c1.5-1.1,3-1.9,4.7-2.4c1.6-0.4,3.2-0.7,4.7-0.7c2.8,0,5.5,0.8,7.9,2.3c2.5,1.6,3.7,4.2,3.8,7.9
					c0,1.3-0.1,2.6-0.5,4.1h-17c0,1.3,0.2,2.3,0.8,3.1c0.5,0.9,1.5,1.4,2.9,1.4c2-0.1,3.2-0.6,3.6-1.7h8.8V28.1z M78.5,20.6
					c0.1-0.3,0.1-0.5,0.1-0.8c0-0.9-0.3-1.7-0.8-2.3c-0.6-0.6-1.5-0.9-2.7-0.9c-2.6,0-4.2,1.3-4.9,3.9L78.5,20.6L78.5,20.6z"/>
				<path class="st3" d="M105.6,20.2c0.1-1.1-0.1-1.9-0.6-2.3c-0.5-0.5-1.2-0.7-2.3-0.7c-0.9,0-1.7,0.3-2.4,0.8
					c-0.7,0.5-1.2,1.2-1.6,2c-0.7,1.7-1.1,3.2-1.1,4.5c0,1.1,0.2,2.1,0.6,2.9c0.4,0.9,1.3,1.3,2.5,1.4c1.2,0,2.2-0.5,2.8-1.3
					c0.6-0.7,1-1.5,1.2-2.2h8.8c-1.6,6.6-5.9,9.9-12.9,9.9c-2.5,0-4.6-0.4-6.2-1.1c-1.6-0.7-2.8-1.6-3.7-2.6
					c-0.9-1.1-1.5-2.3-1.8-3.5s-0.5-2.3-0.5-3.4c0-4.1,1.3-7.4,3.8-9.9c2.5-2.6,6-3.9,10.6-3.9c3.4,0,6.2,0.7,8.3,2.2
					c2.1,1.5,3.2,3.9,3.1,7.2C114.2,20.2,105.6,20.2,105.6,20.2z"/>
				<path class="st3" d="M120.4,2.5h9.2L127,14.2h0.1c0.9-1.2,2-2.1,3.4-2.7c1.3-0.6,2.6-0.9,3.8-0.9c2.2,0,4,0.5,5.5,1.4
					c1.5,1,2.3,2.6,2.3,4.9c0,1.1-0.2,2.6-0.7,4.5l-2.9,13.2h-9.2l2.4-10.7c0.4-1.5,0.7-2.8,0.7-3.9c0-0.8-0.2-1.3-0.7-1.7
					c-0.5-0.4-1.1-0.5-1.9-0.5c-1.4,0-2.4,0.5-3.1,1.3s-1.1,1.9-1.4,3.2l-2.7,12.4h-9.2L120.4,2.5z"/>
				<g>
					<path class="st3" d="M65.2,12.8c1-0.7,2-1.3,3-1.8H57.1l1.7-8.5h-9.2l-1.8,8.4h-3.1l-1.3,5.5h3.3l-2.1,10
						c-0.3,1.4-0.5,2-0.5,3.2c0,0.9,0.2,1.7,0.7,2.5c0.4,0.8,1,1.5,1.8,1.9c0.9,0.4,1.9,0.7,2.9,0.8s2,0.1,2.9,0.1
						c1.7-0.1,3.2-0.3,4.8-0.6l1.4-6.4C58,28,57.1,28,55.7,28c-0.7,0-1.2-0.2-1.4-0.5c-0.3-0.2-0.4-0.5-0.4-0.9
						c0-0.8,0.1-1.2,0.4-2.3l1.7-7.9h6C62.8,15,63.9,13.7,65.2,12.8z"/>
				</g>
			</g>
		</g>
		<g>
			<path class="st3" d="M2.2,48.2L0,42.8h1.2l1.7,4.4l3.2-4.4h1.3l-4.1,5.4l-0.7,3.6H1.5L2.2,48.2z"/>
			<path class="st3" d="M6.3,49.3c0-1.1,0.3-2.1,0.9-2.9c0.6-0.8,1.4-1.2,2.5-1.2c1.7,0,2.5,0.9,2.6,2.7c0,1.1-0.3,2.1-0.9,2.9
				c-0.6,0.8-1.4,1.2-2.5,1.3c-0.8,0-1.4-0.3-1.9-0.8C6.5,50.7,6.3,50.1,6.3,49.3z M7.3,49.3c0,1.2,0.6,1.8,1.7,1.8
				c0.4,0,0.7-0.1,1-0.3s0.5-0.4,0.7-0.8c0.4-0.7,0.6-1.3,0.6-2c0-0.5-0.1-1-0.4-1.3c-0.3-0.3-0.7-0.5-1.2-0.5c-0.4,0-0.7,0.1-1,0.3
				s-0.5,0.4-0.8,0.8C7.5,47.8,7.3,48.5,7.3,49.3z"/>
			<path class="st3" d="M18,51.8h-1l0.2-1l0,0c-0.6,0.7-1.3,1.1-2.2,1.1c-1.2,0-1.7-0.6-1.7-1.7c0-0.3,0.1-0.7,0.2-1.3l0.8-3.7h1
				L14.5,49c-0.1,0.3-0.1,0.7-0.1,1s0.1,0.5,0.3,0.7s0.4,0.2,0.8,0.2c0.6,0,1.1-0.2,1.5-0.7c0.4-0.4,0.6-0.9,0.8-1.5l0.7-3.6h1
				L18,51.8z"/>
			<path class="st3" d="M21.2,45.3h1l-0.3,1.4l0,0c0.2-0.5,0.5-0.8,0.9-1.1s0.8-0.4,1.3-0.4c0.1,0,0.2,0,0.4,0l-0.2,1.1
				c-0.1,0-0.2,0-0.3,0c-0.2,0-0.4,0-0.6,0.1c-0.6,0.2-1,0.5-1.3,1.1c-0.1,0.2-0.2,0.5-0.3,0.7c-0.1,0.3-0.1,0.5-0.2,0.8L21,51.9h-1
				L21.2,45.3z"/>
			<path class="st3" d="M29.3,42.8h3.4c1.7,0,2.5,0.8,2.5,2.5c0,0.3,0,0.6-0.1,0.9c-0.1,0.3-0.3,0.6-0.5,0.9c-0.2,0.3-0.6,0.5-1,0.7
				s-1,0.3-1.6,0.3h-2.5l-0.8,3.7h-1.2L29.3,42.8z M29.6,47.2h2.6c0.6,0,1.1-0.2,1.4-0.5c0.3-0.3,0.5-0.8,0.5-1.3
				c0-0.6-0.1-0.9-0.4-1.2c-0.3-0.2-0.6-0.3-1-0.3h-2.4L29.6,47.2z"/>
			<path class="st3" d="M36,47.3c0.1-0.7,0.4-1.3,0.9-1.6s1.1-0.5,1.7-0.5c0.6,0,1.2,0.1,1.6,0.3c0.2,0.1,0.4,0.3,0.5,0.5
				s0.2,0.5,0.2,0.8c0,0.2,0,0.4-0.1,0.6c0,0.2-0.1,0.4-0.1,0.6l-0.4,1.8c0,0.1-0.1,0.3-0.1,0.4c-0.1,0.2-0.1,0.3-0.1,0.5
				c0,0.3,0.1,0.4,0.3,0.4c0.1,0,0.2,0,0.3-0.1l-0.2,0.8c-0.2,0.1-0.4,0.1-0.6,0.2c-0.6,0-0.8-0.3-0.8-0.9l0,0
				c-0.2,0.3-0.5,0.5-0.8,0.7s-0.7,0.3-1.3,0.3c-0.5,0-1-0.1-1.3-0.4c-0.4-0.3-0.6-0.8-0.6-1.4c0-0.5,0.1-0.9,0.3-1.1
				c0.2-0.3,0.4-0.5,0.7-0.6s0.7-0.2,1-0.3c0.4-0.1,0.7-0.1,1-0.1c0.5,0,0.9-0.1,1.2-0.2c0.2-0.1,0.4-0.4,0.4-0.8
				c0-0.3-0.1-0.6-0.4-0.7c-0.3-0.1-0.5-0.2-0.8-0.2c-0.4,0-0.8,0.1-1.1,0.3s-0.5,0.5-0.6,0.9H36V47.3z M36.3,50.1
				c0,0.3,0.1,0.5,0.3,0.7s0.5,0.2,0.8,0.2c0.8,0,1.4-0.3,1.7-0.9c0.2-0.3,0.3-0.5,0.3-0.8c0.1-0.3,0.1-0.6,0.2-0.9l0,0
				c-0.1,0.1-0.2,0.1-0.4,0.2c-0.1,0-0.3,0.1-0.5,0.1c-0.4,0.1-0.7,0.1-1.1,0.2c-0.4,0-0.7,0.1-1,0.3C36.5,49.4,36.3,49.7,36.3,50.1
				z"/>
			<path class="st3" d="M43,45.3h1l-0.3,1.4l0,0c0.2-0.5,0.5-0.8,0.9-1.1s0.8-0.4,1.3-0.4c0.1,0,0.2,0,0.4,0l-0.2,1.1
				c-0.1,0-0.2,0-0.3,0c-0.2,0-0.4,0-0.6,0.1c-0.6,0.2-1,0.5-1.3,1.1c-0.1,0.2-0.2,0.5-0.3,0.7c-0.1,0.3-0.1,0.5-0.2,0.8l-0.6,2.9
				h-1L43,45.3z"/>
			<path class="st3" d="M48.5,45.3h1.2l-0.2,0.9h-1.2L47.5,50c0,0.1,0,0.3,0,0.4c0,0.2,0.1,0.3,0.2,0.3c0.1,0.1,0.2,0.1,0.4,0.1
				s0.4,0,0.6-0.1l-0.2,1c-0.2,0-0.5,0.1-0.7,0.1c-0.4,0-0.7-0.1-1-0.2c-0.3-0.1-0.4-0.4-0.4-0.8c0-0.2,0-0.4,0.1-0.5l0.8-4.1h-1
				l0.2-0.9h1l0.4-1.9h1L48.5,45.3z"/>
			<path class="st3" d="M51,45.3h1l-0.2,1l0,0c0.6-0.7,1.3-1.1,2.2-1.1c1.1,0,1.7,0.6,1.7,1.7c0,0.3-0.1,0.7-0.2,1.3l-0.7,3.7h-1
				l0.8-3.8c0.1-0.3,0.1-0.7,0.1-1s-0.1-0.5-0.3-0.7c-0.2-0.1-0.5-0.2-0.8-0.2s-0.6,0.1-0.8,0.2c-0.3,0.1-0.5,0.3-0.7,0.5
				s-0.3,0.4-0.4,0.6c-0.1,0.2-0.2,0.5-0.3,0.8l-0.7,3.6h-1L51,45.3z"/>
			<path class="st3" d="M57.8,48.9c0,0.2,0,0.4,0,0.6c0,0.5,0.2,0.9,0.5,1.2s0.7,0.4,1.1,0.4c0.9,0,1.5-0.4,1.8-1.3h1
				c-0.2,0.7-0.5,1.3-1,1.6c-0.5,0.4-1.1,0.6-1.8,0.6c-0.5,0-0.9-0.1-1.2-0.3s-0.6-0.4-0.8-0.6c-0.1-0.1-0.2-0.3-0.2-0.4
				c-0.1-0.1-0.1-0.3-0.2-0.4c-0.1-0.3-0.1-0.6-0.1-0.9c0-1.3,0.3-2.3,1-3.1c0.6-0.8,1.3-1.1,2.2-1.1c1.8,0,2.6,1,2.6,2.9
				c0,0.4,0,0.6-0.1,0.8H57.8z M61.5,48c0-0.5,0-0.9-0.3-1.3c-0.1-0.2-0.3-0.3-0.5-0.4c-0.2-0.1-0.4-0.2-0.7-0.2
				c-0.6,0-1.1,0.2-1.4,0.5c-0.4,0.4-0.6,0.8-0.8,1.3h3.7V48z"/>
			<path class="st3" d="M64.4,45.3h1l-0.3,1.4l0,0c0.2-0.5,0.5-0.8,0.9-1.1s0.8-0.4,1.3-0.4c0.1,0,0.2,0,0.4,0l-0.2,1.1
				c-0.1,0-0.2,0-0.3,0c-0.2,0-0.4,0-0.6,0.1c-0.6,0.2-1,0.5-1.3,1.1c-0.1,0.2-0.2,0.5-0.3,0.7c-0.1,0.3-0.1,0.5-0.2,0.8l-0.6,2.9
				h-1L64.4,45.3z"/>
			<path class="st3" d="M72,45.3h1l-1.3,6.5h-1L72,45.3z M73.2,44.1h-1l0.3-1.3h1L73.2,44.1z"/>
			<path class="st3" d="M74.7,45.3h1l-0.2,1l0,0c0.6-0.7,1.3-1.1,2.2-1.1c1.1,0,1.7,0.6,1.7,1.7c0,0.3-0.1,0.7-0.2,1.3l-0.7,3.7h-1
				l0.8-3.8c0.1-0.3,0.1-0.7,0.1-1s-0.1-0.5-0.3-0.7c-0.2-0.1-0.5-0.2-0.8-0.2s-0.6,0.1-0.8,0.2c-0.3,0.1-0.5,0.3-0.7,0.5
				s-0.3,0.4-0.4,0.6c-0.1,0.2-0.2,0.5-0.3,0.8l-0.7,3.6h-1L74.7,45.3z"/>
			<path class="st3" d="M85.6,42.8h3c2.1,0,3.2,1.2,3.2,3.4c-0.1,3.6-1.7,5.5-4.7,5.6h-3.3L85.6,42.8z M85.1,50.8h2
				c1.2,0,2.1-0.5,2.7-1.4s0.9-1.9,0.9-3c0-0.3,0-0.7-0.1-1s-0.2-0.6-0.4-0.8c-0.3-0.5-1-0.8-1.9-0.8h-1.8L85.1,50.8z"/>
			<path class="st3" d="M93.6,45.3h1l-1.3,6.5h-1L93.6,45.3z M94.9,44.1h-1l0.3-1.3h1L94.9,44.1z"/>
			<path class="st3" d="M100.6,50.9c-0.1,0.7-0.3,1.3-0.5,1.8c-0.5,1.2-1.5,1.8-2.8,1.8c-0.6,0-1.2-0.2-1.7-0.5s-0.7-0.8-0.8-1.5h1
				c0,0.4,0.2,0.7,0.5,0.9c0.1,0.1,0.3,0.1,0.5,0.2c0.2,0,0.4,0,0.5,0c0.4,0,0.7-0.1,1-0.2c0.3-0.2,0.5-0.4,0.6-0.6
				c0.2-0.3,0.3-0.5,0.4-0.8s0.2-0.6,0.2-0.9l0,0c-0.5,0.7-1.1,1-2,1c-0.8,0-1.3-0.3-1.7-0.8c-0.4-0.5-0.6-1.1-0.6-1.9
				c0-1,0.3-1.9,0.9-2.7s1.3-1.3,2.3-1.3c0.5,0,0.9,0.1,1.3,0.4c0.4,0.2,0.6,0.6,0.7,1l0,0l0,0l0.2-1.2h0.9L100.6,50.9z M96.4,49.2
				c0,0.5,0.1,0.9,0.4,1.2c0.3,0.4,0.6,0.5,1.1,0.5c0.4,0,0.7-0.1,1-0.3s0.5-0.4,0.7-0.8c0.4-0.7,0.5-1.3,0.5-2.1
				c0-0.5-0.1-0.9-0.4-1.2S99,46.1,98.5,46c-0.3,0-0.7,0.1-0.9,0.3c-0.3,0.2-0.5,0.5-0.7,0.8C96.6,47.9,96.4,48.5,96.4,49.2z"/>
			<path class="st3" d="M103.4,45.3h1l-1.3,6.5h-1L103.4,45.3z M104.6,44.1h-1l0.3-1.3h1L104.6,44.1z"/>
			<path class="st3" d="M107.5,45.3h1.2l-0.2,0.9h-1.2l-0.8,3.8c0,0.1,0,0.3,0,0.4c0,0.2,0.1,0.3,0.2,0.3c0.1,0.1,0.2,0.1,0.4,0.1
				c0.2,0,0.4,0,0.6-0.1l-0.2,1c-0.2,0-0.5,0.1-0.7,0.1c-0.4,0-0.7-0.1-1-0.2c-0.3-0.1-0.4-0.4-0.4-0.8c0-0.2,0-0.4,0.1-0.5l0.8-4.1
				h-1l0.2-0.9h1l0.4-1.9h1L107.5,45.3z"/>
			<path class="st3" d="M109.4,47.3c0.1-0.7,0.4-1.3,0.9-1.6s1.1-0.5,1.7-0.5s1.2,0.1,1.6,0.3c0.2,0.1,0.4,0.3,0.5,0.5
				s0.2,0.5,0.2,0.8c0,0.2,0,0.4-0.1,0.6c0,0.2-0.1,0.4-0.1,0.6l-0.4,1.8c0,0.1-0.1,0.3-0.1,0.4c-0.1,0.2-0.1,0.3-0.1,0.5
				c0,0.3,0.1,0.4,0.3,0.4c0.1,0,0.2,0,0.3-0.1l-0.2,0.8c-0.2,0.1-0.4,0.1-0.6,0.2c-0.6,0-0.8-0.3-0.8-0.9l0,0
				c-0.2,0.3-0.5,0.5-0.8,0.7s-0.7,0.3-1.3,0.3c-0.5,0-1-0.1-1.3-0.4c-0.4-0.3-0.6-0.8-0.6-1.4c0-0.5,0.1-0.9,0.3-1.1
				c0.2-0.3,0.4-0.5,0.7-0.6c0.3-0.1,0.7-0.2,1-0.3c0.4-0.1,0.7-0.1,1-0.1c0.5,0,0.9-0.1,1.2-0.2c0.2-0.1,0.4-0.4,0.4-0.8
				c0-0.3-0.1-0.6-0.4-0.7c-0.3-0.1-0.5-0.2-0.8-0.2c-0.4,0-0.8,0.1-1.1,0.3c-0.3,0.2-0.5,0.5-0.6,0.9h-0.8V47.3z M109.7,50.1
				c0,0.3,0.1,0.5,0.3,0.7c0.2,0.2,0.5,0.2,0.8,0.2c0.8,0,1.4-0.3,1.7-0.9c0.2-0.3,0.3-0.5,0.3-0.8c0.1-0.3,0.1-0.6,0.2-0.9l0,0
				c-0.1,0.1-0.2,0.1-0.4,0.2c-0.1,0-0.3,0.1-0.5,0.1c-0.4,0.1-0.7,0.1-1.1,0.2c-0.4,0-0.7,0.1-1,0.3
				C109.8,49.4,109.7,49.7,109.7,50.1z"/>
			<path class="st3" d="M116.9,42.8h1l-1.8,9h-1L116.9,42.8z"/>
			<path class="st3" d="M123.2,42.8h5.9l-0.2,1h-4.7l-0.6,2.9h4.4l-0.2,1h-4.4l-0.6,3.1h4.8l-0.2,1h-5.9L123.2,42.8z"/>
			<path class="st3" d="M131,48.4l-1.4-3.1h1.2l0.9,2.4l1.8-2.4h1.2l-2.6,3.2l1.6,3.4h-1.2l-1.1-2.7l-2.1,2.7H128L131,48.4z"/>
			<path class="st3" d="M139.7,47.4c0-0.4-0.1-0.7-0.3-0.9s-0.6-0.3-1-0.3c-0.8,0-1.4,0.3-1.8,1c-0.4,0.6-0.6,1.3-0.6,2.1
				c0,0.5,0.1,1,0.3,1.3c0.2,0.4,0.6,0.5,1.2,0.6c0.4,0,0.8-0.1,1.1-0.4c0.3-0.2,0.5-0.6,0.7-1h1c-0.4,1.5-1.3,2.3-2.8,2.3
				c-1.7,0-2.5-1-2.5-2.8c0-1.1,0.3-2,0.9-2.8c0.6-0.8,1.4-1.2,2.5-1.2c1.4,0,2.2,0.7,2.3,2.2L139.7,47.4L139.7,47.4z"/>
			<path class="st3" d="M142.5,48.9c0,0.2,0,0.4,0,0.6c0,0.5,0.2,0.9,0.5,1.2s0.7,0.4,1.1,0.4c0.9,0,1.5-0.4,1.8-1.3h1
				c-0.2,0.7-0.5,1.3-1,1.6c-0.5,0.4-1.1,0.6-1.8,0.6c-0.5,0-0.9-0.1-1.2-0.3s-0.6-0.4-0.8-0.6c-0.1-0.1-0.2-0.3-0.2-0.4
				c-0.1-0.1-0.1-0.3-0.2-0.4c-0.1-0.3-0.1-0.6-0.1-0.9c0-1.3,0.3-2.3,1-3.1c0.6-0.8,1.3-1.1,2.2-1.1c1.8,0,2.6,1,2.6,2.9
				c0,0.4,0,0.6-0.1,0.8H142.5z M146.2,48c0-0.5,0-0.9-0.3-1.3c-0.1-0.2-0.3-0.3-0.5-0.4c-0.2-0.1-0.4-0.2-0.7-0.2
				c-0.6,0-1.1,0.2-1.4,0.5c-0.4,0.4-0.6,0.8-0.8,1.3h3.7V48z"/>
			<path class="st3" d="M149.7,42.8h1l-1.8,9h-1L149.7,42.8z"/>
			<path class="st3" d="M152.4,42.8h1l-1.8,9h-1L152.4,42.8z"/>
			<path class="st3" d="M154.6,48.9c0,0.2,0,0.4,0,0.6c0,0.5,0.2,0.9,0.5,1.2s0.7,0.4,1.1,0.4c0.9,0,1.5-0.4,1.8-1.3h1
				c-0.2,0.7-0.5,1.3-1,1.6c-0.5,0.4-1.1,0.6-1.8,0.6c-0.5,0-0.9-0.1-1.2-0.3s-0.6-0.4-0.8-0.6c-0.1-0.1-0.2-0.3-0.2-0.4
				c-0.1-0.1-0.1-0.3-0.2-0.4c-0.1-0.3-0.1-0.6-0.1-0.9c0-1.3,0.3-2.3,1-3.1c0.6-0.8,1.3-1.1,2.2-1.1c1.8,0,2.6,1,2.6,2.9
				c0,0.4,0,0.6-0.1,0.8H154.6z M158.3,48c0-0.5,0-0.9-0.3-1.3c-0.1-0.2-0.3-0.3-0.5-0.4c-0.2-0.1-0.4-0.2-0.7-0.2
				c-0.6,0-1.1,0.2-1.4,0.5c-0.4,0.4-0.6,0.8-0.8,1.3h3.7V48z"/>
			<path class="st3" d="M161.3,45.3h1l-0.2,1l0,0c0.6-0.7,1.3-1.1,2.2-1.1c1.1,0,1.7,0.6,1.7,1.7c0,0.3-0.1,0.7-0.2,1.3l-0.7,3.7h-1
				l0.8-3.8c0.1-0.3,0.1-0.7,0.1-1s-0.1-0.5-0.3-0.7c-0.2-0.1-0.5-0.2-0.8-0.2s-0.6,0.1-0.8,0.2c-0.3,0.1-0.5,0.3-0.7,0.5
				s-0.3,0.4-0.4,0.6c-0.1,0.2-0.2,0.5-0.3,0.8l-0.7,3.6h-1L161.3,45.3z"/>
			<path class="st3" d="M171.8,47.4c0-0.4-0.1-0.7-0.3-0.9s-0.6-0.3-1-0.3c-0.8,0-1.4,0.3-1.8,1c-0.4,0.6-0.6,1.3-0.6,2.1
				c0,0.5,0.1,1,0.3,1.3c0.2,0.4,0.6,0.5,1.2,0.6c0.4,0,0.8-0.1,1.1-0.4c0.3-0.2,0.5-0.6,0.7-1h1c-0.4,1.5-1.3,2.3-2.8,2.3
				c-1.7,0-2.5-1-2.5-2.8c0-1.1,0.3-2,0.9-2.8c0.6-0.8,1.4-1.2,2.5-1.2c1.4,0,2.2,0.7,2.3,2.2L171.8,47.4L171.8,47.4z"/>
			<path class="st3" d="M174.6,48.9c0,0.2,0,0.4,0,0.6c0,0.5,0.2,0.9,0.5,1.2s0.7,0.4,1.1,0.4c0.9,0,1.5-0.4,1.8-1.3h1
				c-0.2,0.7-0.5,1.3-1,1.6c-0.5,0.4-1.1,0.6-1.8,0.6c-0.5,0-0.9-0.1-1.2-0.3s-0.6-0.4-0.8-0.6c-0.1-0.1-0.2-0.3-0.2-0.4
				c-0.1-0.1-0.1-0.3-0.2-0.4c-0.1-0.3-0.1-0.6-0.1-0.9c0-1.3,0.3-2.3,1-3.1c0.6-0.8,1.3-1.1,2.2-1.1c1.8,0,2.6,1,2.6,2.9
				c0,0.4,0,0.6-0.1,0.8H174.6z M178.3,48c0-0.5,0-0.9-0.3-1.3c-0.1-0.2-0.3-0.3-0.5-0.4c-0.2-0.1-0.4-0.2-0.7-0.2
				c-0.6,0-1.1,0.2-1.4,0.5c-0.4,0.4-0.6,0.8-0.8,1.3h3.7V48z"/>
		</g>
	</g>
	<g>
		<g>
			<g>
				<path class="st4" d="M185.4,51.9c-0.2,0-0.3-0.1-0.3-0.3V31.7c0-0.2,0.1-0.3,0.3-0.3s0.3,0.1,0.3,0.3v19.8
					C185.7,51.7,185.6,51.9,185.4,51.9z"/>
			</g>
		</g>
		<g>
			<g class="st5">
				<path class="st3" d="M190.3,40.3h0.9v11.4h-1.3v-9.6c-0.1,0.2-0.3,0.3-0.6,0.4c-0.3,0.1-0.5,0.1-0.8,0.1v-0.9
					c0.4-0.1,0.7-0.2,1-0.4C189.9,41.1,190.1,40.7,190.3,40.3z"/>
				<path class="st3" d="M192.7,43.6c0-0.9,0.1-1.5,0.2-1.9c0.1-0.4,0.3-0.7,0.4-0.9c0.3-0.4,0.9-0.6,1.6-0.6c0.7,0,1.2,0.2,1.5,0.6
					c0.3,0.4,0.5,1,0.6,1.7c0,0.3,0,0.7,0,1.2v4.6c0,1.5-0.2,2.6-0.6,3c-0.3,0.4-0.8,0.6-1.5,0.6s-1.1-0.2-1.4-0.7s-0.5-1.3-0.5-2.3
					v-0.4h1.2v0.2c0,1,0.1,1.7,0.2,1.9c0.1,0.2,0.4,0.3,0.6,0.3c0.3,0,0.5-0.1,0.5-0.4c0.1-0.2,0.1-0.7,0.1-1.4v-1.8
					c-0.2,0.2-0.5,0.3-1,0.3c-0.8,0-1.3-0.3-1.6-0.9c-0.3-0.6-0.4-1.5-0.4-2.6L192.7,43.6L192.7,43.6z M195.7,43.4
					c0-0.7,0-1.2-0.1-1.5s-0.2-0.4-0.3-0.5s-0.3-0.1-0.4-0.1c-0.3,0-0.6,0.2-0.7,0.5c-0.1,0.3-0.2,0.9-0.2,1.6v0.7
					c0,0.9,0.1,1.5,0.2,1.8c0.1,0.3,0.4,0.5,0.8,0.5c0.4,0,0.6-0.1,0.7-0.4V43.4z"/>
				<path class="st3" d="M198.3,43.6c0-0.9,0.1-1.5,0.2-1.9c0.1-0.4,0.3-0.7,0.4-0.9c0.3-0.4,0.9-0.6,1.6-0.6s1.2,0.2,1.5,0.6
					c0.3,0.4,0.5,1,0.6,1.7c0,0.3,0,0.7,0,1.2v4.6c0,1.5-0.2,2.6-0.6,3c-0.3,0.4-0.8,0.6-1.5,0.6s-1.1-0.2-1.4-0.7s-0.5-1.3-0.5-2.3
					v-0.4h1.2v0.2c0,1,0.1,1.7,0.2,1.9c0.1,0.2,0.4,0.3,0.6,0.3s0.5-0.1,0.5-0.4c0.1-0.2,0.1-0.7,0.1-1.4v-1.8
					c-0.2,0.2-0.5,0.3-1,0.3c-0.8,0-1.3-0.3-1.6-0.9c-0.3-0.6-0.4-1.5-0.4-2.6L198.3,43.6L198.3,43.6z M201.3,43.4
					c0-0.7,0-1.2-0.1-1.5s-0.2-0.4-0.3-0.5s-0.3-0.1-0.4-0.1c-0.3,0-0.6,0.2-0.7,0.5c-0.1,0.3-0.2,0.9-0.2,1.6v0.7
					c0,0.9,0.1,1.5,0.2,1.8c0.1,0.3,0.4,0.5,0.8,0.5c0.4,0,0.6-0.1,0.7-0.4V43.4z"/>
				<path class="st3" d="M204.6,44.1c0-1.8,0.2-2.9,0.5-3.3c0.1-0.2,0.3-0.3,0.4-0.4c0.3-0.2,0.7-0.3,1.1-0.3c1.2,0,1.8,1.1,1.8,3.2
					c0,1-0.3,2.1-0.8,3.1c-0.2,0.4-0.5,0.9-0.7,1.3c-0.6,1.1-1,2-1.1,3h2.4v1h-3.7v-0.6c0-0.9,0.4-2.1,1.3-3.8c0,0,0.1-0.3,0.4-0.8
					c0.3-0.5,0.4-0.8,0.5-0.9c0.1-0.3,0.3-0.6,0.3-1.1c0.1-0.4,0.1-0.9,0.1-1.3c0-0.5,0-0.8-0.1-1.1s-0.1-0.5-0.2-0.6
					c-0.1-0.1-0.2-0.1-0.3-0.1s-0.2,0-0.3,0.1c-0.3,0.2-0.5,0.8-0.5,1.9v1.5h-1.3v-0.8H204.6z"/>
			</g>
			<g class="st5">
				<path class="st3" d="M192.5,32.6l-0.8,0.5c-0.1-0.2-0.2-0.4-0.3-0.4c-0.2-0.1-0.4-0.2-0.6-0.2c-0.3,0-0.5,0.1-0.7,0.2
					c-0.2,0.2-0.3,0.3-0.3,0.6c0,0.3,0.2,0.6,0.7,0.8l0.7,0.3c0.5,0.2,0.9,0.5,1.2,0.8c0.2,0.3,0.4,0.7,0.4,1.1
					c0,0.3-0.1,0.6-0.2,0.9c-0.1,0.3-0.3,0.5-0.5,0.7c-0.4,0.4-0.8,0.5-1.4,0.5c-0.7,0-1.2-0.2-1.6-0.7c-0.1-0.2-0.3-0.3-0.3-0.5
					c-0.1-0.2-0.1-0.4-0.2-0.7l1-0.2c0,0.2,0.1,0.4,0.1,0.5s0.1,0.2,0.1,0.3c0.1,0.1,0.2,0.2,0.4,0.3s0.3,0.1,0.5,0.1
					c0.3,0,0.6-0.1,0.8-0.3s0.3-0.5,0.3-0.8s-0.1-0.5-0.2-0.6c-0.1-0.1-0.4-0.3-0.7-0.5l-0.6-0.3c-0.5-0.2-0.8-0.4-1-0.7
					c-0.2-0.3-0.3-0.6-0.3-0.9c0-0.5,0.2-0.9,0.6-1.3c0.2-0.2,0.4-0.3,0.6-0.4c0.2-0.1,0.5-0.1,0.7-0.1c0.5,0,0.8,0.1,1.2,0.4
					c0.1,0.1,0.2,0.2,0.3,0.3C192.3,32.3,192.4,32.4,192.5,32.6z"/>
				<path class="st3" d="M194.2,31.7c0.2,0,0.3,0.1,0.4,0.2c0.1,0.1,0.2,0.3,0.2,0.4c0,0.2-0.1,0.3-0.2,0.4s-0.3,0.2-0.4,0.2
					c-0.2,0-0.3-0.1-0.4-0.2s-0.2-0.3-0.2-0.4c0-0.2,0.1-0.3,0.2-0.4C193.9,31.8,194,31.7,194.2,31.7z M194.6,34v4.1h-1V34
					C193.6,34,194.6,34,194.6,34z"/>
				<path class="st3" d="M195.9,34h1v0.4c0.2-0.2,0.4-0.3,0.5-0.4c0.2-0.1,0.4-0.1,0.6-0.1c0.2,0,0.5,0,0.7,0.1s0.4,0.2,0.5,0.3
					c0.1,0.1,0.2,0.3,0.3,0.5s0.1,0.4,0.1,0.8v2.5h-1v-2.3c0-0.2,0-0.4,0-0.5s-0.1-0.2-0.1-0.3c-0.1-0.2-0.3-0.2-0.6-0.2
					s-0.6,0.1-0.7,0.3c-0.1,0.2-0.2,0.5-0.2,1.1v2h-1V34H195.9z"/>
				<path class="st3" d="M203.8,34.2v1.3c-0.2-0.3-0.4-0.4-0.5-0.5c-0.2-0.1-0.4-0.2-0.6-0.2c-0.3,0-0.6,0.1-0.8,0.3
					c-0.1,0.1-0.2,0.3-0.3,0.5s-0.1,0.4-0.1,0.6c0,0.4,0.1,0.7,0.3,1c0.2,0.2,0.5,0.4,0.9,0.4c0.2,0,0.5-0.1,0.7-0.2
					c0.1-0.1,0.3-0.3,0.5-0.5v1.3c-0.2,0.1-0.4,0.2-0.6,0.2c-0.2,0-0.4,0.1-0.6,0.1c-0.7,0-1.2-0.2-1.6-0.7
					c-0.2-0.2-0.3-0.4-0.4-0.7c-0.1-0.3-0.1-0.5-0.1-0.8s0-0.5,0.1-0.8s0.2-0.5,0.4-0.7c0.4-0.5,1-0.8,1.7-0.8c0.2,0,0.4,0,0.6,0.1
					C203.4,34,203.6,34.1,203.8,34.2z"/>
				<path class="st3" d="M208.5,36.3h-3c0,0.3,0.1,0.6,0.3,0.8s0.4,0.3,0.7,0.3s0.5-0.1,0.7-0.2c0.1-0.1,0.3-0.3,0.4-0.6l0.8,0.4
					c-0.1,0.2-0.2,0.4-0.3,0.5s-0.2,0.2-0.3,0.3c-0.4,0.3-0.8,0.4-1.3,0.4c-0.3,0-0.5,0-0.8-0.1c-0.2-0.1-0.5-0.2-0.6-0.4
					c-0.4-0.4-0.6-0.9-0.6-1.7c0-0.3,0.1-0.6,0.2-0.9c0.1-0.3,0.3-0.5,0.4-0.7c0.4-0.4,0.8-0.5,1.4-0.5c0.3,0,0.6,0.1,0.8,0.2
					c0.3,0.1,0.5,0.3,0.7,0.5c0.1,0.2,0.3,0.4,0.3,0.6c0.1,0.3,0.1,0.5,0.1,0.8L208.5,36.3z M207.5,35.6c-0.1-0.2-0.1-0.4-0.2-0.5
					c-0.2-0.2-0.4-0.3-0.7-0.3c-0.2,0-0.4,0.1-0.6,0.2c-0.2,0.1-0.3,0.3-0.3,0.6C205.7,35.6,207.5,35.6,207.5,35.6z"/>
			</g>
		</g>
	</g>
</g>
</svg>
